# xmcd
#
# Track frame offsets:
#	150
#	14382
#	28250
#	41305
#	55885
#	68252
#	80722
#	97227
#	108465
#	122997
#	135682
#	149592
#
# Disc length: 2162 seconds
#
# Revision: 1
# Processed by: cddbd v1.4PL0 Copyright (c) Steve Scherf et al.
# Submitted via: audiograbber 1.80.04
#
DISCID=ac08700c
DTITLE=Invasores - Ventans al viento
DYEAR=1997
DGENRE=norteño
TTITLE0=Te quiero para mi
TTITLE1=Terco corazon
TTITLE2=Vuelve cariño
TTITLE3=Enamorado
TTITLE4=Ni amarrado vuelvo
TTITLE5=Franqueza
TTITLE6=Ventanas al viento
TTITLE7=Cuando quieras ven conmigo
TTITLE8=Contigo o sin ti
TTITLE9=Divina mujer
TTITLE10=A ti
TTITLE11=Nada de ti
EXTD=
EXTT0=
EXTT1=
EXTT2=
EXTT3=
EXTT4=
EXTT5=
EXTT6=
EXTT7=
EXTT8=
EXTT9=
EXTT10=
EXTT11=
PLAYORDER=
